<?xml version="1.0" encoding="UTF-8"?>
<svg version="1.1" xmlns="http://www.w3.org/2000/svg" width="512" height="512">
<path d="M0 0 C12.85629548 7.63268006 17.18692913 21.70041006 22.53292847 34.91497803 C23.76150198 37.95170643 24.99967945 40.98436107 26.24047852 44.01611328 C27.54660745 47.2075952 28.85221809 50.39927597 30.15498352 53.59213257 C34.726578 64.79390197 39.38104774 75.96059394 44.04296875 87.125 C44.87771425 89.12601202 45.71234921 91.12707016 46.546875 93.12817383 C48.22446868 97.15084282 49.90240925 101.17336683 51.58056641 105.19580078 C54.11599136 111.27407263 56.64818064 117.35368922 59.1796875 123.43359375 C67.13812754 142.54612975 75.10601098 161.6545913 83.10546875 180.75 C91.95642501 201.87801042 100.76755286 223.02252387 109.57324219 244.16943359 C113.33317179 253.1985858 117.09540925 262.22677638 120.85748291 271.2550354 C122.94024036 276.25331714 125.02284688 281.25166177 127.10546875 286.25 C127.93880136 288.2500003 128.77213469 290.2500003 129.60546875 292.25 C154.60546878 352.25000007 154.60546878 352.25000007 155.85533142 355.24967957 C156.68911385 357.25075129 157.52290496 359.2518194 158.35670471 361.25288391 C160.43323781 366.23645698 162.50962275 371.22009167 164.58569336 376.20385742 C169.30253775 387.5264756 174.02238022 398.84783224 178.74905396 410.16635132 C180.90355556 415.32715046 183.0538765 420.48960939 185.19433594 425.65625 C186.00443049 427.61072965 186.81464907 429.56515789 187.625 431.51953125 C188.01315887 432.45576324 188.40131775 433.39199524 188.80123901 434.3565979 C191.07785921 439.83073818 193.41273973 445.27461533 195.8046875 450.69921875 C206.49952213 475.11465438 206.49952213 475.11465438 201.97265625 488.6328125 C197.76399979 497.99304846 191.85694604 504.42186516 182.32421875 508.36328125 C165.56344797 512.98062951 152.39828182 505.05908792 137.79296875 497.625 C135.30881425 496.3693644 132.82269432 495.1176603 130.3359375 493.8671875 C129.71907074 493.55678528 129.10220398 493.24638306 128.46664429 492.92657471 C122.88237704 490.12365206 117.2527135 487.42313935 111.60546875 484.75 C102.44097895 480.40684628 93.36441119 475.90013235 84.30419922 471.34423828 C76.44371852 467.39370041 68.55503723 463.51793893 60.60546875 459.75 C52.04853556 455.69418216 43.56542789 451.50411804 35.10546875 447.25 C25.36832233 442.35473505 15.5960151 437.55018124 5.74047852 432.89746094 C1.86422248 431.06508688 -1.99455419 429.23008134 -5.7734375 427.203125 C-6.82402344 426.64109375 -7.87460937 426.0790625 -8.95703125 425.5 C-9.79363281 425.03078125 -10.63023437 424.5615625 -11.4921875 424.078125 C-15.62403032 422.65381495 -19.04241298 423.88475805 -22.96459961 425.56591797 C-24.04362549 426.11908691 -25.12265137 426.67225586 -26.234375 427.2421875 C-26.82897018 427.5436821 -27.42356537 427.8451767 -28.03617859 428.1558075 C-29.30959276 428.80240918 -30.58120334 429.45257319 -31.85113525 430.10598755 C-35.22847212 431.84335706 -38.61909576 433.55449646 -42.0078125 435.26953125 C-42.68583923 435.61360519 -43.36386597 435.95767914 -44.06243896 436.31217957 C-49.83832263 439.23798388 -55.66494025 442.04758428 -61.51953125 444.8125 C-70.6432811 449.13338091 -79.67755629 453.62097711 -88.6963501 458.15603638 C-97.47282263 462.56693622 -106.29616148 466.85949281 -115.171875 471.06640625 C-122.79705788 474.69392043 -130.35053291 478.4570684 -137.89453125 482.25 C-150.15434995 488.40964383 -162.49136052 494.38524195 -174.89453125 500.25 C-176.59382241 501.05713924 -178.29304333 501.86442636 -179.9921875 502.671875 C-181.54280864 503.40658801 -183.09358063 504.14098276 -184.64453125 504.875 C-185.34215576 505.20612793 -186.03978027 505.53725586 -186.75854492 505.87841797 C-195.49614572 509.99503424 -205.03890193 511.09222046 -214.37109375 508.15625 C-223.68787341 503.72193462 -230.06148037 498.01937932 -234.00390625 488.38671875 C-236.50817907 479.56684561 -235.70672207 471.55616012 -232.421875 463.13671875 C-232.15879547 462.45830933 -231.89571594 461.7798999 -231.62466431 461.08093262 C-227.83667607 451.40495053 -223.78911812 441.83128121 -219.76953125 432.25 C-218.88657654 430.13920632 -218.00393336 428.0282823 -217.12158203 425.91723633 C-215.29186166 421.54019884 -213.46081618 417.16371917 -211.62890625 412.78759766 C-209.00240883 406.51092499 -206.38433765 400.23076954 -203.76953125 393.94921875 C-203.35502716 392.95346832 -202.94052307 391.9577179 -202.51345825 390.93179321 C-201.6810093 388.93191384 -200.84858124 386.93202577 -200.01617432 384.93212891 C-192.96000419 367.98212004 -185.88154846 351.04153624 -178.78747559 334.10736084 C-170.30606798 313.86001946 -161.86531133 293.59579753 -153.42675781 273.33056641 C-148.83549269 262.3050324 -144.24100196 251.28084201 -139.64709473 240.25640869 C-138.39882414 237.26079132 -137.15057528 234.2651649 -135.90234375 231.26953125 C-135.49024658 230.28053833 -135.07814941 229.29154541 -134.65356445 228.27258301 C-132.13274621 222.22256999 -129.61268985 216.1722402 -127.09320068 210.12167358 C-118.34338073 189.10901738 -109.58224437 168.10124684 -100.78747559 147.10736084 C-94.84959126 132.9320757 -88.92903355 118.7496402 -83.01953125 104.5625 C-82.60747437 103.57327545 -82.19541748 102.5840509 -81.77087402 101.56484985 C-78.81158513 94.46011141 -75.85301547 87.35507354 -72.89453125 80.25 C-69.74322406 72.68199033 -66.59159968 65.11411295 -63.43939209 57.54647827 C-62.18992525 54.5464916 -60.94089532 51.54632331 -59.69189453 48.54614258 C-58.16172542 44.8708392 -56.62876898 41.19671767 -55.09375 37.5234375 C-53.60709631 33.96502805 -52.13207373 30.40207554 -50.6640625 26.8359375 C-49.95451253 25.12366251 -49.24488078 23.4114214 -48.53515625 21.69921875 C-48.21846985 20.9232988 -47.90178345 20.14737885 -47.57550049 19.34794617 C-43.82895553 10.34664744 -38.92280114 3.45194243 -29.89453125 -0.75 C-20.74296445 -4.41321557 -8.93153602 -4.30868069 0 0 Z " fill="#000000" transform="translate(271.89453125,2.75)"/>
</svg>
